<?xml version="1.0" encoding="utf-8"?>
<!-- Generator: Adobe Illustrator 15.0.0, SVG Export Plug-In . SVG Version: 6.00 Build 0)  -->
<!DOCTYPE svg PUBLIC "-//W3C//DTD SVG 1.1//EN" "http://www.w3.org/Graphics/SVG/1.1/DTD/svg11.dtd">
<svg version="1.1"
	 id="svg1" inkscape:export-ydpi="51.457458" inkscape:export-xdpi="51.457458" sodipodi:version="0.32" sodipodi:docname="chess_set_symbols_12_black_pawn.svg" sodipodi:docbase="/home/vector" inkscape:version="0.46" xmlns:dc="http://purl.org/dc/elements/1.1/" xmlns:cc="http://creativecommons.org/ns#" xmlns:rdf="http://www.w3.org/1999/02/22-rdf-syntax-ns#" xmlns:svg="http://www.w3.org/2000/svg" xmlns:sodipodi="http://sodipodi.sourceforge.net/DTD/sodipodi-0.dtd" xmlns:inkscape="http://www.inkscape.org/namespaces/inkscape" inkscape:export-filename="C:\joanna\Gfx\drawings_vector\admin\thumbs\Igor Krizanovskij\chess_set_symbols_igor_k_01_ok.png" inkscape:output_extension="org.inkscape.output.svg.inkscape"
	 xmlns="http://www.w3.org/2000/svg" xmlns:xlink="http://www.w3.org/1999/xlink" x="0px" y="0px" width="90px" height="90px"
	 viewBox="-17.308 -7.045 90 90" enable-background="new -17.308 -7.045 90 90" xml:space="preserve">
<defs>
	
	
		<inkscape:perspective  id="perspective20" inkscape:persp3d-origin="526.18109 : 125 : 1" sodipodi:type="inkscape:persp3d" inkscape:vp_x="0 : 187.5 : 1" inkscape:vp_y="0 : 1000 : 0" inkscape:vp_z="1052.3622 : 187.5 : 1">
		</inkscape:perspective>
</defs>
<sodipodi:namedview  id="base" inkscape:current-layer="layer1" inkscape:pageshadow="2" inkscape:pageopacity="0.0" inkscape:window-height="778" inkscape:window-x="2" inkscape:window-y="0" inkscape:window-width="1270" showgrid="false" pagecolor="#ffffff" inkscape:zoom="0.80058132" inkscape:cy="44.73312" inkscape:cx="702.38575" bordercolor="#666666" borderopacity="1.0">
	</sodipodi:namedview>
<g id="layer1" transform="translate(-919.954,-80.409863)" inkscape:groupmode="layer" inkscape:label="Layer 1">
	<path id="path1722" d="M920.083,156.32c-0.086-1.032-0.129-3.055-0.129-6.067c0-10.845,3.356-18.892,10.07-24.142
		c1.979-1.636,4.389-3.142,7.229-4.519c-3.356-1.033-5.637-3.571-6.842-7.617c-0.344-1.291-0.516-2.625-0.516-4.002
		c0-5.767,2.969-9.854,8.908-12.265c-1.549-2.582-2.324-5.034-2.324-7.358c0-3.873,1.893-6.756,5.68-8.649
		c1.721-0.861,3.572-1.291,5.551-1.291c4.303,0,7.488,1.678,9.554,5.034c0.946,1.464,1.42,3.099,1.42,4.906
		c0,2.496-0.731,4.949-2.194,7.358c3.184,1.291,5.465,3.013,6.842,5.164c1.377,2.324,2.065,4.69,2.066,7.101
		c-0.001,4.476-1.55,7.875-4.648,10.199c-0.774,0.688-1.635,1.162-2.582,1.42c7.918,4.045,13.039,9.338,15.363,15.879
		c1.205,3.615,1.807,7.875,1.807,12.781c0,3.013-0.043,5.035-0.129,6.067H920.083"/>
</g>
</svg>
