<?xml version="1.0" encoding="utf-8"?>
<!-- Generator: Adobe Illustrator 15.0.0, SVG Export Plug-In . SVG Version: 6.00 Build 0)  -->
<!DOCTYPE svg PUBLIC "-//W3C//DTD SVG 1.1//EN" "http://www.w3.org/Graphics/SVG/1.1/DTD/svg11.dtd">
<svg version="1.1"
	 id="svg1" inkscape:export-ydpi="51.457458" inkscape:export-xdpi="51.457458" sodipodi:version="0.32" sodipodi:docname="chess_set_symbols_08_black_queen.svg" sodipodi:docbase="/home/vector" inkscape:version="0.46" xmlns:dc="http://purl.org/dc/elements/1.1/" xmlns:cc="http://creativecommons.org/ns#" xmlns:rdf="http://www.w3.org/1999/02/22-rdf-syntax-ns#" xmlns:svg="http://www.w3.org/2000/svg" xmlns:sodipodi="http://sodipodi.sourceforge.net/DTD/sodipodi-0.dtd" xmlns:inkscape="http://www.inkscape.org/namespaces/inkscape" inkscape:export-filename="C:\joanna\Gfx\drawings_vector\admin\thumbs\Igor Krizanovskij\chess_set_symbols_igor_k_01_ok.png" inkscape:output_extension="org.inkscape.output.svg.inkscape"
	 xmlns="http://www.w3.org/2000/svg" xmlns:xlink="http://www.w3.org/1999/xlink" x="0px" y="0px" width="90px" height="90px"
	 viewBox="-0.202 -3.301 90 90" enable-background="new -0.202 -3.301 90 90" xml:space="preserve">
<defs>
	
	
		<inkscape:perspective  id="perspective20" inkscape:persp3d-origin="526.18109 : 125 : 1" sodipodi:type="inkscape:persp3d" inkscape:vp_x="0 : 187.5 : 1" inkscape:vp_y="0 : 1000 : 0" inkscape:vp_z="1052.3622 : 187.5 : 1">
		</inkscape:perspective>
</defs>
<sodipodi:namedview  id="base" inkscape:current-layer="layer1" inkscape:pageshadow="2" inkscape:pageopacity="0.0" inkscape:window-height="778" inkscape:window-x="2" inkscape:window-y="0" inkscape:window-width="1270" showgrid="false" pagecolor="#ffffff" inkscape:zoom="0.80058132" inkscape:cy="44.73312" inkscape:cx="702.38575" bordercolor="#666666" borderopacity="1.0">
	</sodipodi:namedview>
<g id="layer1" transform="translate(-230.9317,-73.051163)" inkscape:groupmode="layer" inkscape:label="Layer 1">
	<path id="path1742" d="M254.428,142.895c0,1.377,0.99,2.064,2.97,2.064l8.908-0.645c-0.001,0,2.581-0.129,7.745-0.388h1.937
		l15.105,0.774l3.098,0.258c1.979,0,2.97-0.688,2.97-2.064c0-2.496-5.767-3.873-17.3-4.132h-4.002
		c-9.726,0-16.224,0.731-19.494,2.194C255.073,141.474,254.428,142.12,254.428,142.895 M238.291,88.931
		c-1.636,0-2.669,0.817-3.099,2.453c-0.086,0.258-0.129,0.517-0.129,0.775c0,1.635,0.817,2.668,2.452,3.098
		c0.259,0.086,0.517,0.129,0.775,0.129c2.065,0,3.098-1.076,3.098-3.228C241.388,90.006,240.356,88.931,238.291,88.931
		 M255.203,80.797c-2.238,0-3.357,1.076-3.357,3.228c0,2.151,1.119,3.228,3.357,3.228c2.065,0,3.098-1.076,3.098-3.228
		C258.301,81.873,257.268,80.797,255.203,80.797 M296.386,80.797c-1.464,0-2.453,0.731-2.97,2.195l-0.129,1.033
		c0,2.151,1.033,3.228,3.099,3.228c2.151,0,3.228-1.076,3.228-3.228C299.613,81.873,298.537,80.797,296.386,80.797 M313.169,88.931
		c-2.066,0-3.099,1.076-3.099,3.228c0,2.151,1.032,3.228,3.099,3.228c2.151,0,3.227-1.076,3.228-3.228
		c-0.001-1.635-0.818-2.668-2.453-3.099C313.684,88.974,313.427,88.931,313.169,88.931 M303.873,150.64
		c0,2.41-4.433,4.089-13.297,5.035l-12.522,0.774h-2.324c-10.5,0-18.504-0.904-24.013-2.711c-2.668-0.775-4.002-1.808-4.002-3.099
		c0-2.495,0.688-5.336,2.065-8.521c0.947-1.894,1.42-3.228,1.42-4.002c0-1.635-1.979-4.82-5.938-9.553
		c-2.151-2.496-3.399-4.218-3.743-5.164c0-0.518-0.259-1.68-0.775-3.486l-1.678-6.455c-1.119-4.217-1.851-8.693-2.195-13.426
		c-3.959-1.635-5.938-4.26-5.938-7.875c0-3.099,1.42-5.293,4.261-6.584c0.946-0.431,1.979-0.646,3.099-0.646
		c2.84,0,4.948,1.291,6.325,3.873c0.603,1.119,0.904,2.237,0.904,3.356l-0.646,4.906c0,3.873,2.754,8.606,8.262,14.201
		c0.431-3.528,0.646-7.229,0.646-11.103c0-5.766-1.032-9.424-3.098-10.973c-0.173-0.172-0.345-0.301-0.517-0.387
		c-1.55-0.947-2.324-2.625-2.324-5.035c0-3.185,1.463-5.379,4.39-6.584c0.946-0.431,1.937-0.646,2.97-0.646
		c3.012,0,5.163,1.377,6.454,4.131c0.517,0.947,0.775,1.979,0.775,3.099l-0.904,5.551c0,4.82,2.367,12.178,7.101,22.076
		c1.808-8.09,2.711-14.287,2.711-18.59c0-3.615-0.646-6.929-1.937-9.941c-0.517-1.119-0.774-1.979-0.774-2.582
		c0-3.184,1.42-5.379,4.261-6.584c0.946-0.43,1.937-0.646,2.969-0.646c3.013,0,5.121,1.42,6.326,4.26
		c0.431,0.947,0.646,1.937,0.646,2.969c0,0.172-0.731,2.453-2.194,6.842c-0.345,1.119-0.517,3.013-0.517,5.681
		c0,4.303,0.903,10.5,2.711,18.59c4.647-9.812,6.972-17.17,6.972-22.076l-0.775-5.422v-0.129c0-3.185,1.464-5.379,4.39-6.584
		c0.947-0.431,1.937-0.646,2.97-0.646c3.012,0,5.164,1.377,6.455,4.131c0.516,0.947,0.774,1.979,0.774,3.099
		c0,2.41-0.774,4.131-2.324,5.164c-2.409,1.549-3.614,5.336-3.614,11.361c0,3.787,0.215,7.445,0.646,10.973
		c5.508-5.594,8.262-10.328,8.262-14.201l-0.646-4.906c0-3.013,1.377-5.164,4.132-6.455c0.946-0.517,1.979-0.774,3.099-0.774
		c3.098,0,5.293,1.377,6.584,4.131l0.774,2.453v0.646c0,3.442-1.979,6.067-5.938,7.875c-0.517,5.938-1.979,13.211-4.39,21.818
		c-0.172,0.688-0.258,1.205-0.258,1.55c0,0.602-0.646,1.592-1.937,2.969l-1.55,1.937c-4.131,4.733-6.196,8.004-6.196,9.812
		c0,0.516,1.032,3.185,3.099,8.004C303.701,147.843,303.873,149.349,303.873,150.64 M275.858,76.795
		c-1.635,0-2.668,0.818-3.099,2.453c-0.086,0.258-0.129,0.517-0.129,0.774c0,1.636,0.817,2.668,2.453,3.099
		c0.258,0.086,0.517,0.129,0.774,0.129c2.065,0,3.099-1.076,3.099-3.228c0-1.549-0.731-2.582-2.194-3.098
		C276.504,76.838,276.203,76.795,275.858,76.795 M299.096,127.144c0-2.754-7.746-4.132-23.238-4.132
		c-15.578,0-23.367,1.421-23.367,4.262c0,1.204,1.119,1.807,3.357,1.807c2.582,0,5.809-0.215,9.682-0.646l8.392-0.259h2.065
		c2.41,0,6.972,0.216,13.685,0.646l6.326,0.258C298.063,129.08,299.096,128.435,299.096,127.144"/>
</g>
</svg>
