<?xml version="1.0" encoding="utf-8"?>
<!-- Generator: Adobe Illustrator 15.0.0, SVG Export Plug-In . SVG Version: 6.00 Build 0)  -->
<!DOCTYPE svg PUBLIC "-//W3C//DTD SVG 1.1//EN" "http://www.w3.org/Graphics/SVG/1.1/DTD/svg11.dtd">
<svg version="1.1"
	 id="svg1" inkscape:export-ydpi="51.457458" inkscape:export-xdpi="51.457458" sodipodi:version="0.32" sodipodi:docname="svg.svg" inkscape:version="0.48.2 r9819" xmlns:dc="http://purl.org/dc/elements/1.1/" xmlns:cc="http://creativecommons.org/ns#" xmlns:rdf="http://www.w3.org/1999/02/22-rdf-syntax-ns#" xmlns:svg="http://www.w3.org/2000/svg" xmlns:sodipodi="http://sodipodi.sourceforge.net/DTD/sodipodi-0.dtd" xmlns:inkscape="http://www.inkscape.org/namespaces/inkscape" inkscape:export-filename="C:\joanna\Gfx\drawings_vector\admin\thumbs\Igor Krizanovskij\chess_set_symbols_igor_k_01_ok.png" inkscape:output_extension="org.inkscape.output.svg.inkscape"
	 xmlns="http://www.w3.org/2000/svg" xmlns:xlink="http://www.w3.org/1999/xlink" x="0px" y="0px" width="89.467px"
	 height="83.398px" viewBox="0 0 89.467 83.398" enable-background="new 0 0 89.467 83.398" xml:space="preserve">
<defs>
	
	
		<inkscape:perspective  id="perspective20" inkscape:persp3d-origin="526.18109 : 125 : 1" sodipodi:type="inkscape:persp3d" inkscape:vp_x="0 : 187.5 : 1" inkscape:vp_y="0 : 1000 : 0" inkscape:vp_z="1052.3622 : 187.5 : 1">
		</inkscape:perspective>
</defs>
<sodipodi:namedview  id="base" inkscape:current-layer="layer1" inkscape:pageshadow="2" inkscape:pageopacity="0.0" inkscape:window-height="749" inkscape:window-x="2" inkscape:window-y="0" inkscape:window-width="1270" showgrid="false" pagecolor="#ffffff" inkscape:zoom="3.8676871" inkscape:cy="30.961873" inkscape:cx="108.4514" bordercolor="#666666" borderopacity="1.0" inkscape:window-maximized="0">
	</sodipodi:namedview>
<g id="layer1" transform="translate(-232.78988,-215.75111)" inkscape:label="Layer 1" inkscape:groupmode="layer">
	<path id="path1715" d="M274.619,270.103h5.68c1.291,0,2.84,0.043,4.647,0.129l12.781,0.774h0.129c1.549,0,2.324-0.216,2.324-0.646
		v-0.517c0-2.582-5.724-4.261-17.171-5.034c-2.065-0.173-3.873-0.259-5.422-0.259c-8.435,0-14.933,0.86-19.494,2.582
		c-2.065,0.774-3.099,1.679-3.099,2.711v0.517c0,0.43,0.775,0.646,2.324,0.646L274.619,270.103 M298.502,275.911
		c-6.799-0.86-13.771-1.291-20.914-1.291c-7.488,0-14.459,0.431-20.914,1.291c1.033,0.861,1.549,2.539,1.549,5.035
		c0,1.635-0.258,2.625-0.774,2.969c5.164-0.945,11.877-1.42,20.14-1.42s14.976,0.475,20.14,1.42
		c-0.517-0.344-0.774-1.334-0.774-2.969C296.953,278.45,297.469,276.773,298.502,275.911 M277.587,287.015
		c-4.39,0-9.295,0.215-14.718,0.645c-4.217,0.345-6.325,1.334-6.325,2.97c0,2.151,7.015,3.228,21.043,3.228
		c14.029,0,21.043-1.076,21.043-3.228c0-0.688-0.56-1.334-1.678-1.937C293.682,287.573,287.227,287.015,277.587,287.015
		 M277.587,219.495c-2.151,0-3.228,1.033-3.228,3.099c0,2.238,1.076,3.356,3.228,3.356c2.065,0,3.099-1.119,3.099-3.356
		C280.686,220.528,279.653,219.495,277.587,219.495 M277.587,215.751c3.099,0,5.25,1.42,6.455,4.26l0.646,2.582v0.387
		c0,0.517-0.345,1.592-1.033,3.228c-1.205,3.529-1.807,6.584-1.807,9.166c0,4.217,0.946,10.457,2.84,18.72
		c4.647-9.812,6.972-17.213,6.972-22.206l-0.775-5.551c0-3.013,1.334-5.164,4.003-6.455c0.946-0.517,1.979-0.775,3.098-0.775
		c3.099,0,5.293,1.377,6.584,4.131c0.517,1.033,0.775,2.065,0.775,3.099c0,2.237-0.775,4.002-2.324,5.293
		c-2.324,2.324-3.528,6.11-3.614,11.361c-0.001,2.238,0.215,5.853,0.646,10.844c5.594-5.767,8.391-10.457,8.391-14.072l-0.646-5.035
		c0-2.84,1.291-4.949,3.873-6.326c1.033-0.603,2.109-0.904,3.228-0.904c2.927,0,5.121,1.334,6.584,4.002l0.775,2.453v0.774
		c0,3.529-1.979,6.197-5.938,8.004c-0.173,3.701-1.593,10.974-4.261,21.818c-0.172,0.517-0.302,0.989-0.388,1.42
		c0,1.205-1.377,3.271-4.131,6.196c-3.701,3.701-5.552,6.584-5.551,8.65c-0.001,0.947,1.032,3.486,3.098,7.617
		c0.345,0.774,0.517,1.936,0.517,3.485v0.903c-0.086,0.259-0.129,0.561-0.129,0.904v0.129l0.129,0.129
		c0,3.099-8.306,4.82-24.916,5.164c-1.119,0-2.195,0-3.228,0l-5.422-0.129h-0.13c-8.09-0.258-14.244-0.947-18.461-2.066
		c-2.668-0.773-4.002-1.764-4.002-2.969c0.086-0.086,0.086-0.602,0-1.549c-0.086-0.172-0.086-0.344,0-0.517
		c0-1.979,0.646-4.261,1.937-6.843c1.032-2.064,1.549-3.485,1.549-4.26c0-1.377-0.731-3.012-2.194-4.906l-6.326-7.229
		c-0.688-0.947-1.033-1.852-1.033-2.712c-2.668-10.93-4.174-18.031-4.518-21.301c-0.087-0.688-0.13-1.334-0.13-1.937
		c-3.959-1.808-5.938-4.476-5.938-8.004c0-2.84,1.291-4.949,3.873-6.326c1.119-0.603,2.238-0.904,3.356-0.904
		c3.013,0,5.164,1.377,6.455,4.131c0.517,0.947,0.774,1.979,0.774,3.098l-0.646,5.035c0,3.787,2.755,8.478,8.263,14.072
		c0.431-3.787,0.646-7.402,0.646-10.844c0-4.734-0.56-7.875-1.678-9.424c-0.431-0.603-1.076-1.291-1.937-2.066
		c-1.55-1.033-2.324-2.754-2.324-5.164c0-3.013,1.42-5.207,4.261-6.584c0.946-0.43,1.979-0.646,3.098-0.646
		c3.013,0,5.164,1.377,6.455,4.131c0.517,0.947,0.774,1.979,0.774,3.099l-0.774,5.422v0.129c0,4.906,2.324,12.308,6.972,22.206
		c1.808-7.832,2.711-14.072,2.711-18.72c0-3.442-0.646-6.713-1.937-9.812c-0.517-1.205-0.774-2.065-0.774-2.582
		c0-3.012,1.377-5.164,4.131-6.455C275.436,216.009,276.468,215.751,277.587,215.751 M314.897,231.63
		c-1.377,0-2.366,0.688-2.969,2.065c-0.086,0.344-0.13,0.688-0.129,1.033c-0.001,1.721,0.774,2.797,2.323,3.228
		c0.258,0.086,0.517,0.129,0.774,0.129c2.152,0,3.228-1.119,3.228-3.357C318.125,232.663,317.049,231.63,314.897,231.63
		 M297.985,223.368c-1.463,0-2.452,0.732-2.969,2.195l-0.129,1.033c0,1.549,0.731,2.582,2.194,3.099
		c0.258,0.086,0.56,0.129,0.903,0.129c2.238,0,3.356-1.076,3.357-3.228C301.341,224.444,300.223,223.368,297.985,223.368
		 M256.931,223.368c-2.151,0-3.228,1.076-3.228,3.228c0,2.152,1.076,3.228,3.228,3.228c2.066,0,3.099-1.076,3.099-3.228
		C260.03,224.444,258.998,223.368,256.931,223.368 M240.019,231.63c-2.151,0-3.228,1.033-3.228,3.098
		c0,2.238,1.076,3.357,3.228,3.357c2.066,0,3.099-1.119,3.099-3.357c0-1.463-0.731-2.453-2.194-2.969
		C240.665,231.673,240.364,231.63,240.019,231.63 M277.587,239.893c-1.205,7.574-2.754,13.039-4.647,16.396l-1.937,3.098v0.13
		c-0.259-0.259-1.377-1.55-3.356-3.874c-2.496-2.927-5.121-8.478-7.875-16.654c0.172,1.205,0.258,2.453,0.258,3.744
		c0,4.045-0.731,10.285-2.194,18.719c-4.647-2.754-9.166-7.143-13.556-13.168c1.463,7.402,2.582,12.265,3.356,14.588
		c0.517,1.722,1.162,2.711,1.937,2.97c7.058-4.046,16.396-6.067,28.015-6.067c11.705,0,21.043,2.021,28.015,6.067
		c1.549-0.517,3.271-6.369,5.164-17.558c-4.476,6.197-8.951,10.586-13.427,13.168c-1.463-7.488-2.194-13.383-2.194-17.687
		c0-1.119,0.086-2.711,0.258-4.777c-1.721,5.164-3.7,9.769-5.938,13.814c-1.205,1.807-2.539,3.529-4.002,5.164
		c-0.688,0.688-1.119,1.204-1.291,1.55l-2.84-5.036c-0.086-0.344-0.216-0.688-0.388-1.033
		C280.255,251.555,279.136,247.036,277.587,239.893"/>
	
		<path id="path3046" inkscape:connector-curvature="0" opacity="0.5" fill="#FFFFFF" fill-opacity="0.2319" enable-background="new    " d="
		M267.166,293.621c-5.66-0.344-9.288-1.155-10.333-2.31c-0.725-0.801-0.232-1.824,1.229-2.557c1.77-0.887,4.925-1.266,13.462-1.618
		c10.375-0.429,20.27,0.095,24.694,1.307c2.341,0.642,3.084,2.468,1.401,3.446c-1.323,0.77-5.279,1.453-10.028,1.732
		C282.688,293.91,271.918,293.909,267.166,293.621L267.166,293.621z"/>
	<path id="path3048" inkscape:connector-curvature="0" fill="#FFFFFF" stroke="#000000" stroke-miterlimit="10" d="M267.037,293.62
		c-5.632-0.36-9.172-1.168-10.225-2.331c-0.735-0.813-0.256-1.793,1.238-2.534c1.724-0.855,4.713-1.234,12.606-1.6
		c12.44-0.574,24.221,0.234,26.871,1.848c0.799,0.484,1.229,1.468,0.954,2.183c-0.437,1.138-4.506,2.051-10.891,2.443
		C282.947,293.915,271.556,293.909,267.037,293.62L267.037,293.62L267.037,293.62z"/>
	<path id="path3050" inkscape:connector-curvature="0" fill="#FFFFFF" stroke="#000000" stroke-miterlimit="10" d="M257.47,283.777
		c0-0.11,0.1-0.263,0.222-0.339c0.765-0.473,0.411-5.302-0.496-6.77l-0.502-0.813l1.229-0.16c5.686-0.741,10.729-1.01,19.198-1.023
		c8.581-0.014,11.897,0.145,18.801,0.896l2.642,0.289l-0.493,0.627c-0.941,1.197-1.323,5.35-0.652,7.098
		c0.141,0.368,0.013,0.392-1.061,0.191c-4.027-0.753-9.662-1.088-18.461-1.1c-8.896-0.011-13.038,0.211-18.219,0.978
		C258.463,283.832,257.47,283.888,257.47,283.777L257.47,283.777z"/>
	<path id="path3052" inkscape:connector-curvature="0" fill="#FFFFFF" stroke="#000000" stroke-miterlimit="10" d="M255.919,270.913
		c-0.841-0.157-0.901-0.232-0.859-1.072c0.063-1.296,1.2-2.133,4.192-3.086c4.026-1.283,7.014-1.744,13.464-2.08
		c9.382-0.49,21.112,0.779,25.239,2.732c1.604,0.758,2.253,1.552,2.131,2.604c-0.123,1.059-1.041,1.148-7.581,0.736
		c-12.581-0.793-16.868-0.764-33.871,0.23C257.638,271.035,256.417,271.007,255.919,270.913z"/>
	<path id="path3054" inkscape:connector-curvature="0" fill="#FFFFFF" stroke="#000000" stroke-miterlimit="10" d="M248.797,265.28
		c-0.61-0.658-1.378-2.814-2.297-6.447c-0.656-2.593-2.236-10.258-2.136-10.358c0.051-0.051,0.832,0.867,1.736,2.04
		c2.798,3.634,7.843,8.424,10.9,10.349c0.865,0.545,0.764,0.844,1.608-4.724c0.949-6.256,1.235-9.272,1.258-13.249
		c0.011-1.954,0.052-3.521,0.092-3.481c0.04,0.04,0.532,1.348,1.094,2.907c2.441,6.771,4.617,10.894,7.592,14.379
		c1.134,1.329,2.138,2.446,2.231,2.481c0.265,0.102,1.959-2.741,2.817-4.728c1.386-3.206,2.651-7.782,3.45-12.474
		c0.177-1.036,0.402-1.792,0.501-1.681c0.1,0.111,0.554,1.89,1.009,3.952c1.508,6.823,2.343,9.444,3.906,12.259
		c0.797,1.435,1.551,2.608,1.676,2.608c0.435,0,4.66-5.501,5.714-7.439c1.396-2.569,3.459-7.237,4.479-10.133
		c0.448-1.275,0.866-2.369,0.929-2.431s0.041,1.33-0.049,3.093c-0.095,1.887-0.035,4.484,0.146,6.31
		c0.28,2.813,1.767,12.561,1.943,12.736c0.04,0.04,0.759-0.389,1.597-0.952c3.036-2.044,7.252-6.203,10.175-10.04
		c0.776-1.019,1.455-1.809,1.508-1.756c0.156,0.156-0.964,5.923-1.885,9.708c-0.958,3.934-1.721,6.116-2.47,7.068l-0.51,0.648
		l-2.647-1.244c-7.066-3.322-14.631-4.721-25.528-4.721c-11.032,0-19.409,1.6-26.163,4.994l-2.032,1.022L248.797,265.28
		L248.797,265.28z"/>
	
		<path id="path3056" inkscape:connector-curvature="0" opacity="0.5" fill="#FFFFFF" fill-opacity="0.2319" enable-background="new    " d="
		M237.779,237.303c-0.717-0.641-0.84-0.94-0.938-2.291c-0.103-1.424-0.051-1.622,0.627-2.374c0.999-1.107,2.901-1.359,4.182-0.555
		c1.729,1.087,2.007,3.779,0.543,5.244c-0.607,0.607-0.927,0.713-2.151,0.713C238.827,238.041,238.476,237.926,237.779,237.303z"/>
	
		<path id="path3058" inkscape:connector-curvature="0" opacity="0.5" fill="#FFFFFF" fill-opacity="0.2319" enable-background="new    " d="
		M254.796,229.236c-1.182-0.93-1.45-3.339-0.536-4.811c0.8-1.286,3.887-1.423,5.015-0.223c0.63,0.67,0.964,2.473,0.673,3.632
		c-0.095,0.376-0.475,0.964-0.845,1.308C258.193,229.985,255.815,230.037,254.796,229.236L254.796,229.236z"/>
	
		<path id="path3060" inkscape:connector-curvature="0" opacity="0.5" fill="#FFFFFF" fill-opacity="0.2319" enable-background="new    " d="
		M275.313,225.155c-1.582-1.582-1.195-4.591,0.691-5.379c1.313-0.549,3.096-0.299,3.948,0.554c0.532,0.532,0.642,0.895,0.648,2.153
		c0.016,2.55-0.802,3.405-3.254,3.405C276.263,225.888,275.924,225.766,275.313,225.155z"/>
	
		<path id="path3062" inkscape:connector-curvature="0" opacity="0.5" fill="#FFFFFF" fill-opacity="0.2319" enable-background="new    " d="
		M295.839,228.888c-0.748-0.748-0.879-1.059-0.879-2.082c0-2.383,1.389-3.702,3.582-3.401c1.609,0.221,2.293,0.741,2.634,2.007
		c0.388,1.44,0.109,2.724-0.785,3.618c-0.638,0.637-0.936,0.737-2.205,0.737C296.862,229.767,296.632,229.681,295.839,228.888z"/>
	
		<path id="path3064" inkscape:connector-curvature="0" opacity="0.5" fill="#FFFFFF" fill-opacity="0.2319" enable-background="new    " d="
		M313.256,237.636c-0.924-0.501-1.49-1.632-1.49-2.974c0-0.907,0.159-1.236,1.004-2.081c0.82-0.82,1.187-1.004,2.004-1.003
		c0.55,0,1.407,0.204,1.905,0.452c1.712,0.855,1.993,3.799,0.505,5.287c-0.598,0.598-0.942,0.723-1.972,0.714
		C314.526,238.025,313.645,237.847,313.256,237.636L313.256,237.636z"/>
</g>
</svg>
