<?xml version="1.0" encoding="utf-8"?>
<!-- Generator: Adobe Illustrator 15.0.0, SVG Export Plug-In . SVG Version: 6.00 Build 0)  -->
<!DOCTYPE svg PUBLIC "-//W3C//DTD SVG 1.1//EN" "http://www.w3.org/Graphics/SVG/1.1/DTD/svg11.dtd">
<svg version="1.1"
	 id="svg1" inkscape:export-ydpi="51.457458" inkscape:export-xdpi="51.457458" sodipodi:version="0.32" sodipodi:docname="chess_set_symbols_02_white_pawn.svg" sodipodi:docbase="/home/vector" inkscape:version="0.46" xmlns:dc="http://purl.org/dc/elements/1.1/" xmlns:cc="http://creativecommons.org/ns#" xmlns:rdf="http://www.w3.org/1999/02/22-rdf-syntax-ns#" xmlns:svg="http://www.w3.org/2000/svg" xmlns:sodipodi="http://sodipodi.sourceforge.net/DTD/sodipodi-0.dtd" xmlns:inkscape="http://www.inkscape.org/namespaces/inkscape" inkscape:export-filename="C:\joanna\Gfx\drawings_vector\admin\thumbs\Igor Krizanovskij\chess_set_symbols_igor_k_01_ok.png" inkscape:output_extension="org.inkscape.output.svg.inkscape"
	 xmlns="http://www.w3.org/2000/svg" xmlns:xlink="http://www.w3.org/1999/xlink" x="0px" y="0px" width="90px" height="90px"
	 viewBox="0 0 90 90" enable-background="new 0 0 90 90" xml:space="preserve">
<defs>
	
	
		<inkscape:perspective  id="perspective20" inkscape:persp3d-origin="526.18109 : 125 : 1" sodipodi:type="inkscape:persp3d" inkscape:vp_x="0 : 187.5 : 1" inkscape:vp_y="0 : 1000 : 0" inkscape:vp_z="1052.3622 : 187.5 : 1">
		</inkscape:perspective>
</defs>
<sodipodi:namedview  id="base" inkscape:current-layer="layer1" inkscape:pageshadow="2" inkscape:pageopacity="0.0" inkscape:window-height="778" inkscape:window-x="2" inkscape:window-y="0" inkscape:window-width="1270" showgrid="false" pagecolor="#ffffff" inkscape:zoom="0.80058132" inkscape:cy="44.73312" inkscape:cx="702.38575" bordercolor="#666666" borderopacity="1.0">
	</sodipodi:namedview>
<g id="layer1_1_" transform="translate(-921.42487,-223.23889)" inkscape:groupmode="layer" inkscape:label="Layer 1">
	<path id="path1688_1_" fill="#FFFFFF" d="M938.862,304.899c-0.086-1.032-0.129-3.012-0.129-5.938c0-10.586,3.1-18.504,9.295-23.754
		c2.065-1.723,4.69-3.4,7.875-5.035c-3.271-1.033-5.465-3.528-6.584-7.489c-0.431-1.291-0.646-2.625-0.646-4.002
		c0-5.767,2.927-9.897,8.779-12.394c-1.377-2.496-2.065-4.948-2.065-7.358c0-3.959,1.937-6.886,5.81-8.778
		c1.635-0.775,3.399-1.162,5.293-1.162c4.391,0,7.617,1.678,9.684,5.034c0.945,1.464,1.42,3.099,1.42,4.906
		c0,2.324-0.773,4.776-2.323,7.358c5.938,2.41,8.907,6.541,8.908,12.394c-0.001,4.563-1.681,8.005-5.035,10.329
		c-0.688,0.517-1.464,0.904-2.323,1.162c7.745,3.959,12.78,8.994,15.104,15.104c1.463,3.787,2.192,8.35,2.192,13.686
		c0,2.84-0.043,4.819-0.129,5.938H938.862"/>
</g>
<g id="layer1" transform="translate(-921.42487,-223.23889)" inkscape:groupmode="layer" inkscape:label="Layer 1">
	<path id="path1688" d="M989.471,299.735c0-9.036-2.453-15.793-7.358-20.27c-1.636-1.549-3.658-3.012-6.068-4.39
		c-3.355-1.979-5.034-3.786-5.034-5.422c0-0.86,0.86-1.808,2.581-2.84c2.669-1.463,4.262-3.185,4.777-5.164
		c0.172-0.774,0.258-1.722,0.258-2.84c0-3.96-2.021-7.058-6.066-9.296l-2.324-1.678c-0.431-0.431-0.646-0.904-0.646-1.421
		c0-1.463,0.518-2.926,1.551-4.389c0.688-0.947,1.031-2.065,1.031-3.356c0-2.238-1.205-3.873-3.613-4.906
		c-0.775-0.258-1.551-0.388-2.324-0.388c-2.41,0-4.131,1.076-5.164,3.228c-0.345,0.688-0.517,1.378-0.517,2.066
		c0,0.774,0.56,2.237,1.678,4.389c0.688,1.205,0.99,2.324,0.904,3.356c0,1.033-0.99,2.066-2.969,3.099
		c-3.959,2.324-5.939,5.423-5.938,9.296c0,3.356,1.678,6.024,5.035,8.004c1.635,1.119,2.453,2.065,2.453,2.84
		c0,1.636-1.679,3.442-5.035,5.422c-6.197,3.787-10.156,8.392-11.877,13.813c-0.947,3.013-1.42,6.627-1.42,10.845L989.471,299.735
		 M938.863,304.899c-0.086-1.032-0.129-3.012-0.129-5.938c0-10.586,3.099-18.504,9.295-23.754c2.065-1.723,4.69-3.4,7.875-5.035
		c-3.271-1.033-5.465-3.528-6.584-7.489c-0.431-1.291-0.646-2.625-0.646-4.002c0-5.767,2.926-9.897,8.779-12.394
		c-1.377-2.496-2.066-4.948-2.066-7.358c0-3.959,1.937-6.886,5.81-8.778c1.635-0.775,3.399-1.162,5.293-1.162
		c4.39,0,7.617,1.678,9.683,5.034c0.945,1.464,1.42,3.099,1.42,4.906c0,2.324-0.773,4.776-2.323,7.358
		c5.938,2.41,8.907,6.541,8.908,12.394c-0.001,4.563-1.681,8.005-5.035,10.329c-0.688,0.517-1.464,0.904-2.323,1.162
		c7.745,3.959,12.78,8.994,15.104,15.104c1.463,3.787,2.192,8.35,2.192,13.686c0,2.84-0.043,4.819-0.129,5.938H938.863"/>
</g>
</svg>
